<?xml version="1.0" encoding="utf-8"?>
<!-- Generator: Adobe Illustrator 16.0.0, SVG Export Plug-In . SVG Version: 6.00 Build 0)  -->
<!DOCTYPE svg PUBLIC "-//W3C//DTD SVG 1.1//EN" "http://www.w3.org/Graphics/SVG/1.1/DTD/svg11.dtd">
<svg version="1.1" id="Layer_1" xmlns="http://www.w3.org/2000/svg" xmlns:xlink="http://www.w3.org/1999/xlink" x="0px" y="0px"
	 width="591.837px" height="420.775px" viewBox="0 0 591.837 420.775" enable-background="new 0 0 591.837 420.775"
	 xml:space="preserve">
<g>
	<g>
		<path fill="#9DC2E7" d="M481.91,274.158l-9.195-26.973l-15.354,5.231L426,160.396l-34.963,11.912l0.105,0.313l-11.277,48.678
			l-16.045,69.25l9.36,20.666l33.014-11.25l12.018-4.097l13.379-4.561l10.923,32.058l34.964-11.912l-10.924-32.058L481.91,274.158z
			 M418.336,265.717l-7.931,2.703l-15.189,5.177l10.367-51.473l0.975-4.271l15.838,46.479L418.336,265.717z"/>
		<polygon opacity="0.25" fill="#010101" points="466.554,279.394 477.478,311.452 455.208,301.926 419.615,173.682 
			406.558,217.854 400.512,242.873 379.866,221.297 391.143,172.62 391.038,172.307 426,160.396 457.36,252.417 472.714,247.185 
			481.91,274.158 		"/>
		<path opacity="0.25" fill="#010101" d="M418.212,295.867l-12.018,4.097l1.766-24.767v-4.515l2.445-2.262l1.573-1.453l6.357-1.25
			C418.336,265.717,417.942,283.909,418.212,295.867z"/>
		<linearGradient id="SVGID_1_" gradientUnits="userSpaceOnUse" x1="406.6216" y1="238.229" x2="414.487" y2="364.0766">
			<stop  offset="0" style="stop-color:#FCAF17"/>
			<stop  offset="1" style="stop-color:#F47920"/>
		</linearGradient>
		<path fill="url(#SVGID_1_)" d="M418.338,265.716c0,0-3.004-3.772-8.248-3.336s-8.17,2.403-8.346,7.865
			c-0.176,5.463,1.127,32.992-0.07,43.917s6.251,12.017,6.678,3.933c0.428-8.084-2.737-33.429-0.391-37.58
			c2.348-4.151,0.919,4.588,3.381,7.429c2.463,2.84,5.084-2.185,2.463-8.958C411.182,272.212,418.338,265.716,418.338,265.716z"/>
	</g>
	<g>
		<g>
			<path fill="#F26647" d="M98.161,224.93c-0.898,0-1.563-0.049-1.85-0.169c-0.335-0.141-1.357-0.567-10.279-16.493l1.604-0.898
				c3.332,5.947,8.385,14.603,9.455,15.71c0.971,0.157,6.307-0.215,11.035-0.69l0.185,1.83
				C105.334,224.518,100.766,224.93,98.161,224.93z"/>
		</g>
		<path fill="#0A2533" d="M130.503,232.653v0.533c0,0-0.487,10.109-8.055,9.673c-0.019,0-0.037-0.005-0.056-0.005
			c-4.68-0.303-10.473-2.487-14.357-4.109c-2.441-1.021-4.133-1.821-4.321-1.789c-0.492,0.078,5.732,25.971,5.649,27.446
			c-0.009,0.198-0.055,0.409-0.124,0.626c-0.441,1.402-1.981,3.084-2.905,3.223c-0.097,0.014-0.294-0.166-0.574-0.516
			c-2.814-3.498-13.953-23.818-14.257-30.453c-0.326-7.291,3.36-11.682,8.358-12.519c3.687-0.616,14.468,0.869,19.869,1.692
			c1.918,0.294,3.154,0.501,3.154,0.501L130.503,232.653z"/>
		<g>
			<path opacity="0.25" fill="#010101" d="M109.364,264.402c-0.009,0.198-0.055,0.409-0.124,0.626
				c-0.441,1.402-1.981,3.084-2.905,3.223c-0.097,0.014-0.294-0.166-0.574-0.516c3.963-5.595-6.396-32.834-4.143-32.912
				c1.112-0.037,3.572,1.853,6.418,3.922c-2.441-1.021-4.133-1.821-4.321-1.789C103.222,237.034,109.447,262.926,109.364,264.402z"
				/>
			<path opacity="0.25" fill="#010101" d="M130.503,232.653v0.533c0,0-0.487,10.109-8.055,9.673c1.489-1.19,1.765-3.287,1.654-5.825
				c-0.128-2.938-2.846-7.967-4.372-10.578c1.918,0.294,3.154,0.501,3.154,0.501L130.503,232.653z"/>
		</g>
		<path fill="#0A2533" d="M114.398,199.459c-0.252,0.396-0.418,0.727-0.418,0.979c0,0-0.009-0.015-0.027-0.046
			c-0.088-0.156-0.405-0.703-0.813-1.338c-0.69-1.066-1.642-2.391-2.217-2.552c-0.924-0.253-3.383,2.854-6.707,3.103
			c-0.221,0.02-0.441,0.023-0.667,0.015c-3.659-0.166-7.54-5.356-4.423-11.471c1.09,2.239,3.329,2.294,3.329,2.294
			s-1.366-0.275-1.416-1.968c3.985,0.708,6.06-2.294,9.503-1.2c3.438,1.089,3.223,3.167,3.223,3.167s2.62-1.039,3.438,2.239
			C117.86,195.303,115.41,197.887,114.398,199.459z"/>
		<linearGradient id="SVGID_2_" gradientUnits="userSpaceOnUse" x1="108.6411" y1="204.1748" x2="109.5424" y2="195.6533">
			<stop  offset="0" style="stop-color:#FBC4AF"/>
			<stop  offset="1" style="stop-color:#EA8B69"/>
		</linearGradient>
		<path fill="url(#SVGID_2_)" d="M113.953,200.393c-0.234,0.827-0.681,1.729-1.283,2.459c-0.73,0.893-1.696,1.545-2.786,1.518
			c-2.326-0.055-4.639-3.177-5.668-4.764c3.324-0.248,5.783-3.355,6.707-3.103c0.575,0.161,1.526,1.485,2.217,2.552
			C113.547,199.69,113.865,200.237,113.953,200.393z"/>
		<linearGradient id="SVGID_3_" gradientUnits="userSpaceOnUse" x1="119.998" y1="201.3247" x2="112.132" y2="201.8983">
			<stop  offset="0" style="stop-color:#FBC4AF"/>
			<stop  offset="1" style="stop-color:#EA8B69"/>
		</linearGradient>
		<path fill="url(#SVGID_3_)" d="M117.313,200.709c0,0-1.747,3.991-2.404,3.117c-0.354-0.473-1.375-0.785-2.239-0.975
			c0.603-0.73,1.049-1.632,1.283-2.459c0.019,0.031,0.027,0.046,0.027,0.046c0-0.253,0.166-0.584,0.418-0.979
			C115.667,200.416,117.313,200.709,117.313,200.709z"/>
		<path fill="#5462AD" d="M129.602,234.414c-2.786-0.409-10.321-8.602-10.321-12.128c0-0.497-0.055-1.049-0.147-1.65
			c-0.579-3.669-2.698-9.048-3.581-12.85c-1.025-4.423,0.45-6.078,0.45-6.078c3.43-5.898,11.192,5.793,15.619,15.167l0.005,0.005
			c1.489,3.158,2.474,6.091,2.565,8.055C134.509,231.572,132.388,234.823,129.602,234.414z"/>
		<path opacity="0.25" fill="#010101" d="M129.602,234.414c-2.786-0.409-10.321-8.602-10.321-12.128c0-0.497-0.055-1.049-0.147-1.65
			l-0.018-1.572l2.73-14.308c0,0,3.77,4.483,4.372,12.51c0.598,8.027,9.436,9.774,5.408-0.386c1.489,3.158,2.474,6.091,2.565,8.055
			C134.509,231.572,132.388,234.823,129.602,234.414z"/>
		<path fill="#5462AD" d="M123.758,216.718c-0.073,0.063-0.202,0.114-0.372,0.161c-1.292,0.357-5.057,0.303-6.625-0.005
			c-0.234-0.046-0.423-0.101-0.542-0.156c-1.034-0.492,0-1.696-0.326-3.825c-0.327-2.133-1.146-8.358,2.022-10.271
			c3.314-2,5.732,5.571,5.843,9.342S124.471,216.116,123.758,216.718z"/>
		<linearGradient id="SVGID_4_" gradientUnits="userSpaceOnUse" x1="109.7007" y1="233.4302" x2="116.9109" y2="207.5388">
			<stop  offset="0" style="stop-color:#FBC4AF"/>
			<stop  offset="1" style="stop-color:#EA8B69"/>
		</linearGradient>
		<path fill="url(#SVGID_4_)" d="M123.386,216.879c0,0-0.151,9.208-1.908,13.553c0,0.005,0,0.005,0,0.009
			c-0.547,1.352-1.25,2.23-2.156,2.212c-3.811-0.083-12.371-9.135-13.152-9.466c-0.777-0.327-4.671,0.248-4.547-0.327
			c0.124-0.574,1.641-1.844,3.277-2.455c1.642-0.615,1.352-0.248,11.88,4.589c-0.143-0.929-0.083-4.947-0.037-7.223
			c0.005-0.345,0.015-0.648,0.019-0.896C118.33,217.182,122.094,217.237,123.386,216.879z"/>
		<path fill="#5462AD" d="M112.504,270.627c0.267,1.641-10.758,12.863-10.184,9.916c0.57-2.951,4.014-12.293,4.014-12.293
			c0.924-0.139,2.464-1.82,2.905-3.223C110.141,266.59,112.279,269.266,112.504,270.627z"/>
		<path opacity="0.25" fill="none" stroke="#FFFFFF" stroke-width="0.4597" stroke-miterlimit="10" d="M122.448,236.162
			c0,0-17.697-3.323-21.193-1.716c-3.496,1.606,6.396,29.573,6.396,29.573"/>
		<path opacity="0.25" fill="#010101" d="M121.478,230.432c0.336-1.849,0.589-7.223-0.34-9.347
			c-0.625-1.435-2.951-2.667-4.396-3.314c0.005-0.345,0.015-0.648,0.019-0.896c1.568,0.308,5.333,0.362,6.625,0.005
			C123.386,216.879,123.235,226.087,121.478,230.432z"/>
	</g>
	<g>
		<path fill="#6561AB" d="M407.487,168.151c-0.358,1.379-0.956,3.154-1.885,5.53c-1.324,3.407-3.324,8.05-6.271,14.523
			c-0.073,3.288-1.121,24.256-1.406,29.083c-0.037,0.589-0.06,0.938-0.069,0.984c-0.041,0.211-0.8,0.616-1.627,0.823
			c-0.782,0.202-1.618,0.229-1.978-0.249c-0.74-0.983-5.737-20.813-5.98-25.482c-0.248-4.671-0.492-3.605,5.24-22.201
			c-1.393,0.653-10.422,0.409-10.422,0.409s1.655,22.775,1.664,22.94c0,0.023-0.014,0.078-0.046,0.156
			c-0.105,0.313-0.437,1.008-0.795,1.357c-0.161,0.16-0.327,0.252-0.479,0.206c-0.087-0.022-0.299-0.216-0.606-0.542
			c-1.733-1.84-6.487-8.027-9.062-13.797c-3.03-6.8-3.771-11.554-0.901-16.303c2.869-4.753,17.396-5.117,17.396-5.117
			c0.92,0.257,3.034,0.51,5.126,1.007c0.616,0.143,1.232,0.313,1.812,0.506c3.182,1.057,9.245,2.399,10.551,1.646
			C408.039,164.644,408.103,165.83,407.487,168.151z"/>
		<path fill="#F26647" d="M419.528,152.318c-0.575,0.326-7.25,0.078-11.761-1.642c0.023,0.795,0.124,2.046,0.239,3.467
			c0.18,2.239,0.387,4.901,0.336,6.841c-0.028,1.384-0.188,2.404-0.575,2.639c-0.005,0.005-0.009,0.009-0.019,0.009
			c-0.693,0.4-2.726,0.207-4.96-0.216c-1.444-0.276-2.97-0.648-4.271-1.021c-0.474-0.138-0.919-0.275-1.319-0.409
			c-2.556-0.855-5.746-1.182-6.938-1.513c-0.299-0.083-0.469-0.161-0.479-0.253c-0.036-0.451,1.108-1.471,1.646-2.538
			c0.064-0.133,0.151-0.331,0.248-0.584c0.437-1.117,1.122-3.232,1.453-4.579c0.197-0.795,0.271-1.319,0.097-1.228
			c-0.533,0.285-3.688,6.184-4.056,6.184c-0.128,0-0.763-0.363-1.517-0.874c-1.269-0.86-2.864-2.124-2.901-2.726
			c-0.009-0.083,0.014-0.152,0.074-0.207c0.74-0.699,6.39-10.202,8.44-12.229c0.961-0.957,2.097-1.531,3.021-1.871
			c1.034-0.386,1.816-0.474,1.816-0.474c1.218-0.042,2.445,0.12,3.641,0.423c4.064,1.016,7.793,3.582,9.917,4.85
			c2.744,1.637,4.629,1.187,5.323,1.596C417.684,146.378,420.097,151.987,419.528,152.318z"/>
		<path fill="#F69181" d="M408.342,160.984c-3.779,0.046-12.179-0.29-16.666-3.885c0.437-1.117,1.122-3.232,1.453-4.579
			c0,0,8.868,2.689,14.877,1.623C408.186,156.382,408.393,159.044,408.342,160.984z"/>
		<path opacity="0.25" fill="#010101" d="M401.745,139.519c-0.146,1.572-0.703,3.264-2.414,3.131
			c-2.413-0.188-2.933-2.161-3.043-3.08c1.034-0.386,1.816-0.474,1.816-0.474C399.322,139.054,400.549,139.215,401.745,139.519z"/>
		<path fill="#321212" d="M400.724,136.093c0,0-0.409-1.678-1.232-2.542c-0.666,1.085-3.236,1.641-5.218,1.784
			c-0.938,0.069-1.747,0.046-2.156-0.06c-1.393-5.411,2.951-7.784,5.37-7.949c2.413-0.166,4.588,1.632,3.931,4.377
			C403.588,133.841,400.724,136.093,400.724,136.093z"/>
		<linearGradient id="SVGID_5_" gradientUnits="userSpaceOnUse" x1="397.3774" y1="138.5024" x2="397.7051" y2="131.0063">
			<stop  offset="0" style="stop-color:#FBC4AF"/>
			<stop  offset="1" style="stop-color:#EA8B69"/>
		</linearGradient>
		<path fill="url(#SVGID_5_)" d="M400.724,136.093c-0.124,0.359-0.317,0.989-0.648,1.577h-0.005
			c-0.542,0.979-1.452,1.848-3.029,1.209c-0.055-0.023-0.11-0.046-0.161-0.073c-1.328-0.603-2.018-1.775-2.367-2.699
			c-0.11-0.29-0.188-0.556-0.239-0.772c1.981-0.143,4.552-0.699,5.218-1.784c0.037,0.042,0.074,0.083,0.11,0.124
			C400.352,134.567,400.724,136.093,400.724,136.093z"/>
		<linearGradient id="SVGID_6_" gradientUnits="userSpaceOnUse" x1="398.8325" y1="141.6909" x2="398.5868" y2="136.3657">
			<stop  offset="0" style="stop-color:#FBC4AF"/>
			<stop  offset="1" style="stop-color:#EA8B69"/>
		</linearGradient>
		<path fill="url(#SVGID_6_)" d="M400.517,140.272c-0.243,1.517-2.744,1.435-3.016,0.451c-0.143-0.51-0.304-1.002-0.428-1.361
			c-0.11-0.335-0.193-0.552-0.193-0.552v-0.004c0.051,0.027,0.106,0.05,0.161,0.073c1.577,0.639,2.487-0.229,3.029-1.209h0.005
			c-0.17,0.34,0.285,0.768,0.437,1.572C400.568,139.532,400.582,139.873,400.517,140.272z"/>
		<path fill="#262166" d="M387.53,200.329c-0.244,1.885-9.995,9.259-9.829,7.949c0.16-1.311,5.126-12.588,5.126-12.588
			c0.308,0.326,0.52,0.52,0.606,0.542c0.492,0.143,1.117-1.108,1.273-1.563C386.017,196.315,387.75,198.646,387.53,200.329z"/>
		<path fill="#262166" d="M394.25,234.198c-2.294-4.92,0-15.352,0-15.352c0.736,0.984,3.522-0.165,3.604-0.574
			c0.01-0.046,0.032-0.396,0.069-0.984c0,0,0.368,4.998,0.805,9.232S396.545,239.112,394.25,234.198z"/>
		<path opacity="0.25" fill="#010101" d="M393.51,171.163c-1.393,0.653-10.422,0.409-10.422,0.409s1.655,22.775,1.664,22.94
			c0,0.023-0.014,0.078-0.046,0.156c-0.105,0.313-0.437,1.008-0.795,1.357c-1.664-7.793-4.983-22.735-2.336-25.3
			c3.389-3.278,12.565-4.151,12.698-3.434C394.407,168.013,393.51,171.163,393.51,171.163z"/>
		<linearGradient id="SVGID_7_" gradientUnits="userSpaceOnUse" x1="382.396" y1="181.8916" x2="388.2952" y2="143.547">
			<stop  offset="0" style="stop-color:#FBC4AF"/>
			<stop  offset="1" style="stop-color:#EA8B69"/>
		</linearGradient>
		<path fill="url(#SVGID_7_)" d="M387.014,160.4c-0.133,0.276-0.202,0.506-0.16,0.658c0.197,0.763-0.851,10.321-0.469,11.305
			c0.381,0.984,0.602,4.096,0.381,6.064s-4.316,3.168-4.316,1.476c0-1.696,0.492-5.682,0.657-7.213
			c0.165-1.526-1.365-12.588-0.956-14.119c0.267-0.998,1.292-2.689,1.972-3.742c0.363-0.565,0.63-0.952,0.63-0.952
			c0.061,0.96,4.083,3.6,4.418,3.6C389.17,157.476,387.552,159.288,387.014,160.4z"/>
		<path opacity="0.25" fill="#010101" d="M407.487,168.151c-1.807-0.133-3.839-0.924-5.255-2.345
			c-1.646-1.646-4.391-3.172-6.846-4.326c0.616,0.143,1.232,0.313,1.812,0.506c3.182,1.057,9.245,2.399,10.551,1.646
			C408.039,164.644,408.103,165.83,407.487,168.151z"/>
		<path opacity="0.25" fill="#010101" d="M405.602,173.682c-1.324,3.407-3.324,8.05-6.271,14.523
			c-0.073,3.288-1.121,24.256-1.406,29.083c-0.037,0.589-0.06,0.938-0.069,0.984c-0.041,0.211-0.8,0.616-1.627,0.823
			c0.188-7.071-0.06-22.463,1.136-27.042C398.793,186.573,405.202,174.436,405.602,173.682z"/>
		<path opacity="0.25" fill="#010101" d="M398.517,162.395c-0.474-0.138-0.919-0.275-1.319-0.409
			c-2.556-0.855-5.746-1.182-6.938-1.513c-0.299-0.083-0.469-0.161-0.479-0.253c-0.036-0.451,1.108-1.471,1.646-2.538
			c0.533-1.067,2.331-6.68,1.798-6.391c-0.533,0.285-3.688,6.184-4.056,6.184c-0.128,0-0.763-0.363-1.517-0.874
			c0.078-0.133,0.165-0.267,0.262-0.409c1.964-2.896,5.187-6.5,5.733-9.613c0.437-2.294,1.094-0.984,0.983,1.968
			C394.532,151.196,394.389,159.306,398.517,162.395z"/>
		<path opacity="0.25" fill="#010101" d="M407.767,163.623c-0.005,0.005-0.009,0.009-0.019,0.009c-0.693,0.4-2.726,0.207-4.96-0.216
			c3.995-4.004,1.815-14.85,2.441-14.293c0.735,0.653,2.537,1.554,2.537,1.554C407.85,153.628,409.041,162.846,407.767,163.623z"/>
		<path opacity="0.25" fill="#010101" d="M389.17,157.476c0,0-1.618,1.812-2.156,2.924c-0.014-0.244-0.031-0.469-0.055-0.671
			c-0.124-1.172-1.949-3.72-2.837-4.901c0.363-0.565,0.63-0.952,0.63-0.952C384.813,154.837,388.835,157.476,389.17,157.476z"/>
		<path opacity="0.25" fill="#010101" d="M399.602,133.675c-0.983,2.175-3.875,2.427-5.089,2.432
			c-0.11-0.29-0.188-0.556-0.239-0.772c1.981-0.143,4.552-0.699,5.218-1.784C399.529,133.593,399.566,133.634,399.602,133.675z"/>
		<path opacity="0.25" fill="#010101" d="M400.512,139.243c-0.184,0.143-0.408,0.249-0.689,0.313
			c-1.319,0.299-2.248,0.042-2.749-0.193c-0.11-0.335-0.193-0.552-0.193-0.552v-0.004c0.051,0.027,0.106,0.05,0.161,0.073
			c1.577,0.639,2.487-0.229,3.029-1.209h0.005C399.906,138.011,400.361,138.438,400.512,139.243z"/>
		
			<line fill="none" stroke="#0A2533" stroke-width="0.9195" stroke-miterlimit="10" x1="413.586" y1="-30.378" x2="413.586" y2="173.682"/>
		<linearGradient id="SVGID_8_" gradientUnits="userSpaceOnUse" x1="415.3999" y1="135.6416" x2="419.9881" y2="159.8388">
			<stop  offset="0" style="stop-color:#FBC4AF"/>
			<stop  offset="1" style="stop-color:#EA8B69"/>
		</linearGradient>
		<path fill="url(#SVGID_8_)" d="M422.189,149.394c-0.009,0.055-0.022,0.11-0.032,0.161c-0.542,2.469-2.519,2.731-2.892,2.57
			c-0.372-0.161-1.356-1.292-2.216-5.277c-0.019-0.079-0.032-0.157-0.051-0.239c0,0-1.857-4.763-2.73-7.053
			c-2.156-1.278-2.565-0.758-2.869-2.234c-0.299-1.476,0.658-3.384,1.205-3.66c0.547-0.271,3.002,2.023,3.333,2.869
			C416.263,137.376,422.681,146.773,422.189,149.394z"/>
		<path opacity="0.25" fill="#010101" d="M422.157,149.555c-0.542,2.469-2.519,2.731-2.892,2.57
			c-0.372-0.161-1.356-1.292-2.216-5.277c0.547,1.107,1.389,2.542,2.313,3.135C420.377,150.63,421.518,150.424,422.157,149.555z"/>
	</g>
	<g>
		<path fill="#F26647" d="M349.771,278.622l-5.269-26.908c-3.898-19.902-11.415-34.42-22.55-43.561
			c-11.14-9.135-24.899-12.1-41.28-8.891s-27.998,11.107-34.844,23.689c-6.85,12.588-8.321,28.867-4.409,48.839l5.287,27.01
			c3.885,19.833,11.393,34.319,22.532,43.454c4.703,3.857,9.88,6.615,15.53,8.267c7.728,2.267,16.344,2.464,25.846,0.606
			c4.924-0.961,9.421-2.354,13.48-4.175c9.396-4.211,16.485-10.707,21.267-19.497C352.212,314.868,353.679,298.588,349.771,278.622z
			 M316.881,314.739c-1.802,5.518-5.613,8.846-11.434,9.986c-6.027,1.181-10.924-0.511-14.702-5.08
			c-2.575-3.113-4.777-7.733-6.603-13.861c0-0.005,0-0.01,0-0.01c-0.004-0.009-0.004-0.019-0.009-0.032
			c-0.846-2.841-1.609-6.009-2.29-9.498l-7.396-37.776c-1.733-9.922-1.738-17.581-0.019-22.979c1.72-5.396,5.526-8.675,11.415-9.824
			c4.492-0.883,8.367-0.124,11.622,2.267h0.005c1.108,0.818,2.146,1.82,3.112,3.016c3.802,4.703,6.744,12.372,8.822,22.996
			l7.158,36.554C318.578,301.14,318.684,309.217,316.881,314.739z"/>
		<path opacity="0.25" fill="#010101" d="M319.525,319.787c1.518,2.336,3.535,18.215,4.57,27.166
			c-4.06,1.821-8.557,3.214-13.48,4.175c-9.502,1.857-18.118,1.66-25.846-0.606c0.316-0.713,0.606-1.458,0.854-2.221
			c4.823-14.735-1.204-41.321-1.48-42.517c1.825,6.128,4.027,10.748,6.603,13.861c3.778,4.569,8.675,6.261,14.702,5.08
			c5.82-1.141,9.632-4.469,11.434-9.986c1.803-5.521,1.696-13.599-0.317-24.242l-7.158-36.554
			c-2.078-10.624-5.021-18.293-8.822-22.996c-0.966-1.195-2.004-2.197-3.112-3.016c11.627,2.28,21.07,38.278,25.005,55.643
			C326.408,300.942,326.739,308.974,319.525,319.787z"/>
		<path fill="#6561AB" d="M286.708,312.847c0,0,0.754,1.971,4.714,3.063c3.961,1.092,7.675-5.034,10.297-3.063
			s6.818,10.14,10.51,8.896c3.692-1.244,4.784,18.42,3.037,20.605c-1.748,2.185-3.005-15.475-7.62-14.947
			c-4.616,0.526-1.12,13.854-3.742,16.258s-1.529-5.899-4.369-7.429c-2.841-1.529,3.059,66.858-1.312,67.95
			c-4.37,1.093-7.21-3.059-5.462-17.697s-0.438-65.11-3.06-67.732C287.081,316.129,287.245,315.637,286.708,312.847z"/>
	</g>
	<g>
		
			<line fill="none" stroke="#0A2533" stroke-width="0.9195" stroke-miterlimit="10" x1="285.624" y1="-30.378" x2="285.624" y2="208.195"/>
		<g>
			<path fill="#262166" d="M342.344,115.938c0,0-3.481-9.545-3.195-10.283c0.287-0.737,4.111-2.13,4.392-1.721
				c0.279,0.41,2.696,7.825,2.286,8.357C345.417,112.824,342.344,115.938,342.344,115.938z"/>
			<linearGradient id="SVGID_9_" gradientUnits="userSpaceOnUse" x1="285.2661" y1="99.9473" x2="288.1349" y2="106.0434">
				<stop  offset="0" style="stop-color:#FBC4AF"/>
				<stop  offset="1" style="stop-color:#EA8B69"/>
			</linearGradient>
			<path fill="url(#SVGID_9_)" d="M284.417,103.421c0,0,2.125,0.881,3.07,3.176c0.944,2.294,0.576-5.981,0.576-5.981l-1.024-0.942
				L284.417,103.421z"/>
			<linearGradient id="SVGID_10_" gradientUnits="userSpaceOnUse" x1="280.9165" y1="99.7964" x2="288.0443" y2="102.7868">
				<stop  offset="0" style="stop-color:#FBC4AF"/>
				<stop  offset="1" style="stop-color:#EA8B69"/>
			</linearGradient>
			<path fill="url(#SVGID_10_)" d="M283.311,103.421c0,0,2.663,1.987,3.114,2.11c0.45,0.123,1.32-5.08,0.927-5.899
				c-0.395-0.82-1.838-1.639-2.775-1.106C283.639,99.059,282.875,103.099,283.311,103.421z"/>
			<linearGradient id="SVGID_11_" gradientUnits="userSpaceOnUse" x1="285.0073" y1="97.502" x2="289.5957" y2="107.2522">
				<stop  offset="0" style="stop-color:#FBC4AF"/>
				<stop  offset="1" style="stop-color:#EA8B69"/>
			</linearGradient>
			<path fill="url(#SVGID_11_)" d="M290.399,104.016c0,0-2.121-4.916-3.047-5.776c-0.927-0.86-2.647,0.246-2.771,0.696
				s2.058,0.778,2.771,1.516c0.712,0.738-1.214,6.186,0.63,8.112C289.825,110.489,290.399,104.016,290.399,104.016z"/>
			<linearGradient id="SVGID_12_" gradientUnits="userSpaceOnUse" x1="350.3413" y1="107.1514" x2="337.3147" y2="122.6359">
				<stop  offset="0" style="stop-color:#FBC4AF"/>
				<stop  offset="1" style="stop-color:#EA8B69"/>
			</linearGradient>
			<path fill="url(#SVGID_12_)" d="M339.723,117.043c0,0,1.884-1.024,2.294-1.557c0.409-0.533-0.328-2.54,0.86-4.383
				c1.188-1.844,3.728-1.311,4.342,0.901c0.615,2.212-0.982,4.998-1.72,5.858c-0.738,0.86-5.776,4.465-5.776,4.465"/>
			<path fill="#F47920" d="M341.073,121.317c-0.055,0.327-0.391,0.887-1.043,1.651c-2.391,2.795-8.979,8.266-20.854,14.519
				c-0.234,0.956-0.418,1.931-0.556,2.905c-0.441,3.112-0.433,6.257-0.285,9.084c0.036,0.727,0.082,1.435,0.133,2.115
				c0.217,2.979,0.511,5.439,0.433,6.864c-0.037,0.625-0.147,1.048-0.358,1.236c-0.267,0.234-0.548,0.446-0.842,0.635
				c-5.931,3.807-16.726-1.88-18.473-3.591c-0.138-0.133-0.221-0.244-0.238-0.322c-0.304-1.149,0.873-2.377,1.53-4.345
				c0.11-0.335,0.221-1.085,0.331-2.11c0.313-3.03,0.584-8.45,0.681-12.528c0.055-2.603,0.041-4.657-0.078-5.2
				c-0.005-0.009-0.005-0.019-0.005-0.019c-0.326-1.338-10.271-16.362-13.254-21.686c-0.547-0.97-0.859-1.618-0.842-1.802
				c0.11-1.2,2.404-5.461,2.896-5.406c0.083,0.009,0.387,0.391,0.846,1.025c2.304,3.2,8.501,12.873,9.641,14.105
				c1.067,1.154,6.496,6.869,8.823,9.319c0.657,0.685,1.066,1.117,1.066,1.117c1.26-0.023,2.523-0.138,3.788-0.335
				c11.176-1.724,22.159-9.549,25.033-11.724c0.473-0.358,0.727-0.561,0.727-0.561S341.321,119.787,341.073,121.317z"/>
			<path fill="#C54527" d="M313.183,133.826c-3.812,0.616-3.823-4.344-3.625-6.059c0.657,0.685,1.066,1.117,1.066,1.117
				c1.26-0.023,2.523-0.138,3.788-0.335C314.886,130.503,314.506,133.615,313.183,133.826z"/>
			<path fill="#262166" d="M317.042,123.193c-0.74,0.446-1.706,0.598-2.938,0.28c-0.947-0.239-2.056-0.758-3.348-1.637
				c0,0-1.021,1.228-1.103,3.48c-2.704-2.335-3.361-4.671-1.067-5.531c-0.942-4.096,1.067-4.956,4.423-5.158
				c3.361-0.207,4.138,3.236,6.146,3.154C319.277,119.617,318.757,122.177,317.042,123.193z"/>
			<linearGradient id="SVGID_13_" gradientUnits="userSpaceOnUse" x1="313.9067" y1="130.7549" x2="312.5138" y2="114.5313">
				<stop  offset="0" style="stop-color:#FBC4AF"/>
				<stop  offset="1" style="stop-color:#EA8B69"/>
			</linearGradient>
			<path fill="url(#SVGID_13_)" d="M317.042,123.193c-0.037,0.331-0.092,0.712-0.17,1.122c-0.451,2.396-1.628,5.738-3.402,5.554
				c-0.092-0.004-0.188-0.023-0.29-0.055c-1.595-0.501-2.556-2.05-3.057-3.19c-0.331-0.74-0.469-1.306-0.469-1.306
				c0.027-0.712,0.146-1.324,0.299-1.825c0.326-1.081,0.804-1.655,0.804-1.655c1.292,0.878,2.4,1.398,3.348,1.637
				C315.336,123.791,316.302,123.639,317.042,123.193z"/>
			<linearGradient id="SVGID_14_" gradientUnits="userSpaceOnUse" x1="311.5244" y1="130.8809" x2="312.1798" y2="126.7024">
				<stop  offset="0" style="stop-color:#FBC4AF"/>
				<stop  offset="1" style="stop-color:#EA8B69"/>
			</linearGradient>
			<path fill="url(#SVGID_14_)" d="M313.47,131.28c-0.019,0.869-0.138,1.549-0.717,1.59c-1.173,0.083-2.731-1.448-2.648-3.112
				c0.027-0.565,0.037-1.167,0.037-1.719c0-0.557-0.01-1.062-0.019-1.416c0.501,1.14,1.462,2.689,3.057,3.19
				c0.102,0.032,0.198,0.051,0.29,0.055C313.465,130.352,313.484,130.839,313.47,131.28z"/>
			<path fill="#C54527" d="M341.073,121.317c-0.055,0.327-0.391,0.887-1.043,1.651c0.031-1.954-0.396-4.919-0.584-6.143
				c0.473-0.358,0.727-0.561,0.727-0.561S341.321,119.787,341.073,121.317z"/>
			<path fill="#C54527" d="M291.094,104.344c-1.746,1.494-2.598,4.75-2.9,6.184c-0.547-0.97-0.859-1.618-0.842-1.802
				c0.11-1.2,2.404-5.461,2.896-5.406C290.332,103.328,290.635,103.709,291.094,104.344z"/>
			<path fill="#FCAF17" d="M318.467,151.591c-3.907,0.565-11.259,1.067-17.617-1.632c0.313-3.03,0.584-8.45,0.681-12.528
				c3.149,1.333,9.948,3.705,17.089,2.96C318.063,144.305,318.219,148.272,318.467,151.591z"/>
			<path opacity="0.25" fill="#010101" d="M317.7,160.327c-6.391,4.101-18.427-2.818-18.711-3.913
				c-0.304-1.149,0.873-2.377,1.53-4.345c0.11-0.335,0.221-1.085,0.331-2.11c0.313-3.03,0.584-8.45,0.681-12.528
				c0.055-2.603,0.041-4.657-0.078-5.2c0.138,0.423,2.299,7.273,3.406,13.939c1.149,6.882,0.901,10.161,4.262,12.372
				C311.088,159.834,314.679,160.515,317.7,160.327z"/>
			<path fill="#9DC2E7" d="M332.305,179.245c0,2.841-10.271,18.583-12.398,21.814c-0.244,0.373-0.382,0.58-0.382,0.58
				s-1.324-0.152-2.414-0.52c-0.758-0.263-1.406-0.621-1.406-1.117c0-0.102,0.019-0.258,0.051-0.465
				c0.363-2.193,2.62-10.128,5.517-20.619c-1.526-1.857-12.233-8.96-12.233-8.96s-0.005,0.009-0.01,0.027
				c-0.464,1.071-15.327,35.441-17.015,38.646c-0.06,0.115-0.102,0.188-0.129,0.221c-0.763,0.984-3.931,1.09-4.151-0.984
				c0-0.004,0-0.004,0-0.009c-0.91-8.688,6.583-34.895,10.073-46.484c0.625-2.078,1.121-3.687,1.42-4.639
				c1.747,1.71,12.542,7.397,18.473,3.591c0.294-0.189,0.575-0.4,0.842-0.635c0.211-0.188,0.321-0.611,0.358-1.236
				c0.11,0.119,0.226,0.248,0.34,0.386C323.377,163.572,332.305,176.509,332.305,179.245z"/>
			<path fill="#262166" d="M293.062,213.44c-0.409,2.046-11.227,8.11-10.242,4.441c0.8-2.975,3.806-8.165,4.914-10.022
				c0,0.005,0,0.005,0,0.009c0.221,2.074,3.389,1.969,4.151,0.984c0.027-0.032,0.069-0.105,0.129-0.221
				C292.566,210.213,293.329,212.116,293.062,213.44z"/>
			<path fill="#262166" d="M323.46,211.637c-0.823,0.41-11.471-3.687-11.227-5.08c0.248-1.393,3.521-7.02,3.521-7.02
				c-0.032,0.207-0.051,0.363-0.051,0.465c0,1.199,3.82,1.637,3.82,1.637s0.138-0.207,0.382-0.58
				C320.38,205.312,324.228,211.252,323.46,211.637z"/>
			<path opacity="0.25" fill="none" stroke="#010101" stroke-width="0.4597" stroke-miterlimit="10" d="M307.646,168.785
				c0,0-11.799,23.171-16.224,39.074"/>
			<path opacity="0.25" fill="none" stroke="#010101" stroke-width="0.4597" stroke-miterlimit="10" d="M310.431,168.785
				c0,0,13.109,8.603,13.602,9.996c0.491,1.393-6.801,20.757-6.801,20.757"/>
			<path opacity="0.25" fill="#010101" d="M319.24,158.841c-1.443,5.765-9.802,4.198-14.077,3.09
				c-2.487-0.644-5.338-0.667-7.355-0.557c0.625-2.078,1.121-3.687,1.42-4.639c1.747,1.71,12.542,7.397,18.473,3.591
				c0.294-0.189,0.575-0.4,0.842-0.635c0.211-0.188,0.321-0.611,0.358-1.236C319.01,158.575,319.125,158.704,319.24,158.841z"/>
			<path opacity="0.25" fill="#010101" d="M317.111,201.12c-0.758-0.263-1.406-0.621-1.406-1.117c0-0.102,0.019-0.258,0.051-0.465
				c0.363-2.193,2.62-10.128,5.517-20.619c-1.526-1.857-12.233-8.96-12.233-8.96s0.873-2.947,1.857-3.167
				c0.983-0.216,12.344,9.558,13.599,11.581C325.603,180.15,317.866,194.66,317.111,201.12z"/>
			<path opacity="0.25" fill="#010101" d="M317.042,123.193c-0.037,0.331-0.092,0.712-0.17,1.122
				c-2.864,1.458-5.674-1.825-6.009-1.784c-0.193,0.023-0.589,0.52-0.91,0.961c0.326-1.081,0.804-1.655,0.804-1.655
				c1.292,0.878,2.4,1.398,3.348,1.637C315.336,123.791,316.302,123.639,317.042,123.193z"/>
			<path opacity="0.25" fill="#010101" d="M313.47,131.28c-1.89-0.46-2.934-2.354-3.328-3.241c0-0.557-0.01-1.062-0.019-1.416
				c0.501,1.14,1.462,2.689,3.057,3.19c0.102,0.032,0.198,0.051,0.29,0.055C313.465,130.352,313.484,130.839,313.47,131.28z"/>
			<path opacity="0.25" fill="#010101" d="M318.62,140.392c-0.441,3.112-0.433,6.257-0.285,9.084
				c-0.745-3.14-1.397-6.515-0.635-8.468c1.314-3.365,1.457-3.521,1.476-3.521C318.941,138.443,318.757,139.417,318.62,140.392z"/>
		</g>
	</g>
	<g>
		<g>
			<path fill="#6561AB" d="M226.634,171.742l-35.372-6.078l-0.055,0.317l-78.115,87.948l-1.613,21.985l11.204,1.926l19.392,3.333
				l26.03,4.474l2.474,0.423l-1.862,10.845l-0.864,5.017l-2.846,16.573l23.023,3.958l12.35,2.12l5.571-32.435l15.539,2.666
				l4.689-27.295l-15.539-2.666L226.634,171.742z M182.477,216.81l-7.214,41.965l-8.629-1.485l-18.873-3.24l10.45-12.473
				l2.391-2.855l19.925-23.782l2.818-3.19L182.477,216.81z"/>
			<path opacity="0.25" fill="#010101" d="M168.105,285.647l-26.03-4.474c3.066-10.128,6.892-24.086,5.687-27.124l18.873,3.24
				c1.209,2.015,2.165,4.786,2.423,8.589C169.517,272.609,168.514,279.482,168.105,285.647z"/>
			<path fill="#9DC2E7" d="M148.888,254.245c0,0,2.838-3.938,9.229-2.708s6.883,9.096,4.097,17.781
				c-2.786,8.685-3.441,39-2.131,48.832c1.312,9.832,0.492,14.421-2.621,14.748c-3.113,0.328-4.589-11.799-2.786-20.319
				c1.803-8.521,1.639-16.387-1.311-15.076c-2.95,1.312-0.492,4.589-1.967,7.538s-5.899,1.147-5.735-4.425
				C145.827,295.044,154.736,258.835,148.888,254.245z"/>
			<polygon opacity="0.25" fill="#010101" points="210.64,264.853 226.179,267.519 221.49,294.814 205.951,292.148 200.379,324.583 
				188.03,322.462 209.735,187.033 226.634,171.742 			"/>
		</g>
		
			<line fill="none" stroke="#0A2533" stroke-width="0.9195" stroke-miterlimit="10" x1="200.067" y1="-30.378" x2="200.067" y2="180.708"/>
	</g>
	<g>
		<circle fill="#F47920" cx="259.55" cy="132.232" r="6.391"/>
		<circle fill="#6561AB" cx="481.91" cy="213.448" r="6.391"/>
		<circle fill="#9DC2E7" cx="147.762" cy="166.787" r="6.391"/>
		<circle fill="#F26647" cx="253.16" cy="362.23" r="6.391"/>
		<circle fill="#F47920" cx="445.376" cy="151.47" r="2.465"/>
		<circle fill="#9DC2E7" cx="257.085" cy="189.853" r="2.465"/>
		<circle fill="#6561AB" cx="183.345" cy="156.477" r="2.465"/>
	</g>
	<g>
		<linearGradient id="SVGID_15_" gradientUnits="userSpaceOnUse" x1="552.5786" y1="41.2085" x2="331.6849" y2="92.3354">
			<stop  offset="0" style="stop-color:#FFFFFF;stop-opacity:0"/>
			<stop  offset="1" style="stop-color:#9DC2E7"/>
		</linearGradient>
		<path fill="url(#SVGID_15_)" d="M516.823,21.386c0,0-9.851-9.832-28.522-5.899c-18.672,3.933-31.795,33.429-45.389,39.983
			c-13.595,6.555-40.396,25.91-42.399,42.451C426.696,76.118,436.528,85.622,453.57,83s18.353-22.614,42.934-21.958
			c24.58,0.655,50.799,31.197,75.379,14.124s53.421-37.393,30.151-54.107S531.571,29.907,516.823,21.386z"/>
		
			<linearGradient id="SVGID_16_" gradientUnits="userSpaceOnUse" x1="-351.1704" y1="215.0142" x2="-572.071" y2="266.1426" gradientTransform="matrix(-0.5639 -0.8258 0.8258 -0.5639 -261.4033 -121.6185)">
			<stop  offset="0" style="stop-color:#FFFFFF;stop-opacity:0"/>
			<stop  offset="1" style="stop-color:#9DC2E7"/>
		</linearGradient>
		<path fill="url(#SVGID_16_)" d="M117.974,87.839c0,0-2.564,13.679,11.213,26.881c13.776,13.202,45.536,7.406,58.615,14.936
			c13.079,7.53,44.177,18.75,58.967,11.075c-32.771-9.327-30.467-22.806-42.243-35.402c-11.775-12.595-29.024-2.404-42.344-23.072
			c-13.32-20.669-2.885-59.544-30.845-70.215c-27.961-10.671-61.006-23.03-61.687,5.612
			C68.969,46.296,116.694,70.854,117.974,87.839z"/>
		<linearGradient id="SVGID_17_" gradientUnits="userSpaceOnUse" x1="575.5552" y1="264.9077" x2="258.4796" y2="338.2964">
			<stop  offset="0" style="stop-color:#FFFFFF;stop-opacity:0"/>
			<stop  offset="1" style="stop-color:#9DC2E7"/>
		</linearGradient>
		<path fill="url(#SVGID_17_)" d="M593.84,166.262c0,0-39.983,43.868-48.505,95.302c-8.521,51.435-49.507,48.157-63.426,72.409
			c-13.92,24.252-47.092,26.219-62.296,36.051s-49.843-7.21-55.793,0c-5.949,7.21,31.07,18.354,79.091,19.009
			s57.196-36.706,99.802-41.95S627.924,323.486,643,254.005C658.077,184.526,632.513,147.343,593.84,166.262z"/>
		
			<linearGradient id="SVGID_18_" gradientUnits="userSpaceOnUse" x1="-374.8872" y1="282.5708" x2="-691.9628" y2="355.9594" gradientTransform="matrix(-1 0 0 1 -339.8223 0)">
			<stop  offset="0" style="stop-color:#FFFFFF;stop-opacity:0"/>
			<stop  offset="1" style="stop-color:#9DC2E7"/>
		</linearGradient>
		<path fill="url(#SVGID_18_)" d="M16.78,183.927c0,0,39.983,43.869,48.505,95.302c8.521,51.434,49.507,48.156,63.426,72.409
			c13.919,24.252,47.092,26.219,62.296,36.051s49.843-7.21,55.793,0c5.949,7.21-31.07,18.353-79.091,19.009
			c-48.021,0.655-57.196-36.707-99.802-41.95c-42.605-5.244-85.212-23.597-100.287-93.077
			C-47.457,202.191-21.893,165.007,16.78,183.927z"/>
	</g>
</g>
</svg>
